<?xml version="1.0" encoding="utf-8"?>
<!-- Svg Vector Icons : http://www.onlinewebfonts.com/icon -->
<!DOCTYPE svg PUBLIC "-//W3C//DTD SVG 1.1//EN" "http://www.w3.org/Graphics/SVG/1.1/DTD/svg11.dtd">
<svg version="1.1" xmlns="http://www.w3.org/2000/svg" xmlns:xlink="http://www.w3.org/1999/xlink" x="0px" y="0px" viewBox="0 0 256 256" enable-background="new 0 0 256 256" xml:space="preserve">
<metadata> Svg Vector Icons : http://www.onlinewebfonts.com/icon </metadata>
<g><g><g><path fill="#000000" d="M84.5,48C67,50.1,51,56.6,38.2,66.6c-2,1.6-5.9,5.2-8.6,8C20,84.5,13.9,95.9,11.1,109c-1.3,6.3-1.4,18.8-0.2,24.9c2.2,10.7,7.4,22.1,13.9,30.1l1.5,1.8L21,187.1c-2.9,11.6-5.2,21.2-5.1,21.2c0,0,9.6-4.2,21.1-9.6l21-9.6l6.3,2.1c11.6,3.9,19.3,5.1,31.6,5.1c19.8,0,36.3-4.9,52.4-15.5l4.3-2.8l4.2,0.6c5.5,0.8,23.7,0.9,28.4,0c5.9-1.1,12.5-2.9,17.5-4.8c2.7-1,5-1.8,5.3-1.8c0.2,0,7.1,3.3,15.2,7.4c14.3,7.2,14.8,7.4,14.5,6.1c-0.2-0.7-2-7.5-4.2-15l-3.8-13.6l2.7-3.2c8.3-9.7,12.9-20.6,13.6-32c1.5-27.3-19.7-52.2-51.8-60.6c-8.5-2.2-13.2-2.8-23.1-2.8c-9.4,0-13.1,0.4-20.7,2.1l-4.1,0.9l-5.8-3c-9.6-5-18.6-8-29.1-9.8C106.1,47.7,89.7,47.4,84.5,48z M104,58.6c18.7,1.9,35.2,9.2,47.3,20.9c10,9.6,15.7,19.7,18.5,32.4c1.2,5.5,1.1,17.1-0.3,22.8c-5.8,25-27.6,44.6-56.6,50.7c-7.7,1.6-21,2-29,0.9c-6.6-0.9-12.9-2.5-18.5-4.7c-2.3-0.9-5-2-6-2.4l-1.9-0.7l-14.2,7.3c-10.3,5.3-14.2,7-13.9,6.4c1.8-5.9,8.1-27.7,8.1-28.2c0-0.3-1.1-1.8-2.4-3.3c-15.2-17.4-18.8-41.7-9.2-61.9c3.5-7.3,6.9-12.1,12.9-18.1C55.2,64.3,79.5,56.1,104,58.6z M177.5,69.2c35,3,60.8,27.4,57.5,54.4c-0.5,4.6-2.4,10.9-4.3,14.6c-1.8,3.6-5.8,8.9-9,12.2l-3.1,3.1l3,8.4c1.6,4.7,2.9,8.5,2.8,8.6c0,0-3.9-2-8.6-4.6c-7.7-4.2-8.6-4.6-9.7-4.1c-9.7,4.1-14.5,5.6-21.3,6.8c-4.5,0.8-17.3,1.4-20.5,0.9l-2.1-0.3l2.4-2.6c3.2-3.6,8.4-11.4,10.6-16c2.3-4.7,4.3-10.7,5.4-15.9c1-4.8,1.2-20.3,0.2-24.7c-3-13.6-9-25.2-18.8-35.7c-2.2-2.4-3.9-4.4-3.8-4.5c0.2-0.2,8.8-1,11.9-1.1C171.1,68.8,174.5,69,177.5,69.2z"/><path fill="#000000" d="M61.5,112.1c-5.4,1-9.3,6.4-8.6,11.9c1.1,8.3,11.3,12.2,17.4,6.7c3.5-3.1,4.6-6.9,3.4-11C72.2,114.4,66.8,111.1,61.5,112.1z"/><path fill="#000000" d="M93.8,112.1c-6.7,1.2-10.6,8.6-7.8,14.8c1.2,2.8,2.5,4.1,5.3,5.4c3.9,1.8,8,1.3,11.4-1.6c2.5-2.1,3.6-4.6,3.6-8.1C106.2,115.7,100.4,110.9,93.8,112.1z"/><path fill="#000000" d="M125.6,112.1c-6,1.2-10.1,8.7-7.7,14.4c1.6,3.8,6,6.8,10,6.8c4,0,8.4-3,10-6.8c1-2.4,0.8-6.1-0.6-8.8C135.2,113.3,130.7,111.2,125.6,112.1z"/></g></g></g>
</svg>